<svg width="206" height="206" viewBox="0 0 206 206" fill="none" xmlns="http://www.w3.org/2000/svg">
<path d="M26.2141 45.8611H176.874V160.146H26.2141V45.8611Z" fill="#404040" fill-opacity="0.08"/>
<path d="M129.541 175.295L141.572 169.539L150 177L149.312 143.943L129 143L129.541 175.295Z" fill="#FED7AA"/>
<path d="M129 133.275C129 136 130.083 138.614 132.009 140.541C133.936 142.468 136.55 143.55 139.275 143.55C142 143.55 144.614 142.468 146.541 140.541C148.468 138.614 149.55 136 149.55 133.275C149.55 130.55 148.468 127.936 146.541 126.009C144.614 124.083 142 123 139.275 123C136.55 123 133.936 124.083 132.009 126.009C130.083 127.936 129 130.55 129 133.275Z" fill="#FED7AA"/>
<path d="M70.801 68.0067H129.868V71.8906H70.801V68.0067ZM49.6186 102.734H150.478V106.618H49.6186V102.734ZM49.6186 111.543H150.478V115.427H49.6186V111.543ZM49.6186 130.416H75.9225V134.3H49.6186V130.416ZM85.8165 130.416H112.121V134.3H85.8165V130.416ZM136.969 144.444L136.6 144.374C136.329 144.318 136.157 144.28 135.998 144.235L137.07 140.502C137.138 140.522 137.214 140.535 137.288 140.55L137.684 140.627L136.969 144.444ZM140.996 144.462L140.513 140.608L141.615 144.342C141.419 144.395 141.207 144.435 140.996 144.462Z" fill="#FED7AA"/>
<path d="M49.6186 78.9453V97.9446L65.4163 88.5953L49.6186 78.9453ZM69.0887 78.9453H78.661V97.9446H69.0887V78.9453Z" fill="#FED7AA"/>
<path d="M83.7004 88.4969C83.7004 91.0302 84.7067 93.4597 86.498 95.251C88.2893 97.0422 90.7188 98.0486 93.252 98.0486C95.7853 98.0486 98.2148 97.0422 100.006 95.251C101.797 93.4597 102.804 91.0302 102.804 88.4969C102.804 85.9637 101.797 83.5342 100.006 81.7429C98.2148 79.9516 95.7853 78.9453 93.252 78.9453C90.7188 78.9453 88.2893 79.9516 86.498 81.7429C84.7067 83.5342 83.7004 85.9637 83.7004 88.4969Z" fill="#FED7AA"/>
<path d="M106.76 80.9409H123.763V97.9445H106.76V80.9409ZM129.26 97.9445L134.518 80.9409L140.398 86.0346L146.45 80.9409L150.357 97.9445H129.26Z" fill="#FED7AA"/>
</svg>
