<svg width="53" height="56" viewBox="0 0 53 56" fill="" xmlns="http://www.w3.org/2000/svg">
<path d="M29.2453 55.7555H22.8664C21.1119 55.7555 19.6844 54.3285 19.6844 52.5746V46.2582C17.4261 45.4643 15.2996 44.2342 13.4762 42.6672L7.99601 45.8302C7.51484 46.1069 6.96804 46.2526 6.41363 46.2528C5.27656 46.2528 4.21906 45.6466 3.65386 44.6707L0.462027 39.1414C-0.41184 37.6255 0.109995 35.6785 1.62511 34.8007L7.10257 31.6416C6.87957 30.4614 6.7666 29.2579 6.7666 28.0557C6.7666 26.8535 6.87945 25.6502 7.10257 24.4697L1.6264 21.3115C0.106246 20.4307 -0.415356 18.4806 0.462378 16.9634L3.65339 11.4414C4.22 10.4632 5.2775 9.8562 6.41351 9.8562C6.96933 9.8562 7.51707 10.0035 7.99753 10.2822L13.4765 13.4399C15.3018 11.8751 17.4285 10.6465 19.6844 9.85351V3.5371C19.6844 1.78304 21.1119 0.356049 22.8664 0.356049H29.2454C31.0002 0.356049 32.4276 1.78304 32.4276 3.5371V9.85339C34.6944 10.6494 36.8212 11.8777 38.6366 13.4393L44.1164 10.281C44.5962 10.0034 45.1441 9.8562 45.6996 9.8562C46.8355 9.8562 47.8919 10.4638 48.4563 11.4419L51.6496 16.9635C52.5259 18.4843 52.0037 20.434 50.4862 21.3112L45.0091 24.47C45.2306 25.6443 45.3426 26.8478 45.3426 28.0558C45.3426 29.2731 45.2309 30.4768 45.0099 31.6421L50.4856 34.8C51.2164 35.2186 51.742 35.9015 51.9635 36.7217C52.1859 37.5455 52.0747 38.4047 51.6501 39.1411L48.4587 44.6698C47.8931 45.6466 46.836 46.2528 45.6997 46.2529C45.1455 46.2529 44.5986 46.1071 44.1178 45.8314L38.6363 42.6673C36.8137 44.2352 34.687 45.4637 32.4277 46.2538V52.5746C32.4276 54.3285 31 55.7555 29.2453 55.7555ZM13.5733 40.9172C13.765 40.9172 13.9552 40.9873 14.1037 41.123C15.9955 42.8513 18.2792 44.1722 20.7082 44.943C21.0348 45.0467 21.2566 45.3498 21.2566 45.6924V52.5747C21.2566 53.4617 21.9787 54.1834 22.8663 54.1834H29.2453C30.1331 54.1834 30.8552 53.4618 30.8552 52.5747V45.6871C30.8552 45.344 31.0777 45.0405 31.4049 44.9375C33.8343 44.1714 36.1176 42.8526 38.0077 41.1235C38.2607 40.8921 38.6344 40.8512 38.9314 41.0227L44.9018 44.4688C45.1429 44.6071 45.4194 44.6808 45.6994 44.6808C46.2768 44.6807 46.8126 44.3751 47.0976 43.883L50.2883 38.3557C50.5024 37.9842 50.5584 37.5495 50.4457 37.1321C50.3339 36.718 50.0697 36.3741 49.7021 36.1635L43.7328 32.7208C43.4353 32.5491 43.2835 32.2042 43.3583 31.8688C43.6318 30.6405 43.7705 29.3576 43.7705 28.056C43.7705 26.7665 43.6317 25.4832 43.3579 24.2416C43.2841 23.9068 43.4357 23.5626 43.7328 23.3912L49.7001 19.9498C50.4673 19.5065 50.7314 18.5193 50.288 17.7498L47.095 12.2287C46.81 11.735 46.2757 11.4287 45.6997 11.4287C45.4204 11.4287 45.1449 11.5028 44.9028 11.6428L38.9312 15.0846C38.6343 15.2557 38.2607 15.2147 38.0078 14.9834C36.1273 13.2623 33.8438 11.9434 31.4039 11.1692C31.0774 11.0655 30.8554 10.7623 30.8554 10.4198V3.53722C30.8554 2.65023 30.1333 1.92835 29.2455 1.92835H22.8664C21.9788 1.92835 21.2567 2.65011 21.2567 3.53722V10.4195C21.2567 10.7621 21.0349 11.0652 20.7083 11.1689C18.2818 11.9387 15.9978 13.2582 14.1029 14.9844C13.8501 15.215 13.4772 15.2553 13.181 15.0845L7.2105 11.6435C6.96757 11.5026 6.69265 11.4286 6.41351 11.4286C5.83648 11.4286 5.30023 11.7353 5.01429 12.229L1.82351 17.7507C1.37949 18.5182 1.6441 19.505 2.41332 19.9505L8.37921 23.3911C8.67629 23.5625 8.82804 23.9065 8.75421 24.2414C8.47871 25.4909 8.33914 26.7742 8.33914 28.0559C8.33914 29.3377 8.47882 30.621 8.75421 31.8703C8.82804 32.2051 8.67629 32.5493 8.37933 32.7207L2.41214 36.1622C1.64691 36.6054 1.38253 37.59 1.8241 38.356L5.015 43.8839C5.29953 44.375 5.83566 44.6807 6.41375 44.6807C6.69359 44.6807 6.96945 44.6071 7.21144 44.4681L13.1807 41.0227C13.303 40.9517 13.4386 40.9172 13.5733 40.9172Z" fill="#FED7AA"/>
<path d="M26.0575 37.5817C20.8009 37.5817 16.5242 33.3085 16.5242 28.0559C16.5242 22.8034 20.8009 18.5302 26.0575 18.5302C31.3125 18.5302 35.5876 22.8034 35.5876 28.0559C35.5876 33.3085 31.3125 37.5817 26.0575 37.5817ZM26.0575 20.1023C21.6678 20.1023 18.0965 23.6701 18.0965 28.0558C18.0965 32.4414 21.6678 36.0094 26.0575 36.0094C30.4455 36.0094 34.0154 32.4414 34.0154 28.0558C34.0154 23.6701 30.4456 20.1023 26.0575 20.1023Z" fill="#FED7AA"/>
</svg>
