<svg width="293" height="408" xmlns="http://www.w3.org/2000/svg" fill="none">
<filter id="noise">
    <feTurbulence 
      type="fractalNoise" 
      baseFrequency="0.65" 
    />
    <feComposite
      operetor="in"
      in2="SourceGraphic"
      result="monoNoise"
    />
  </filter>
<mask id="path-1-inside-1_5_251" fill="white">
<path d="M127.656 101.136C134.957 94.716 140.433 86.6702 143.589 77.7298C146.744 68.7893 147.477 59.2376 145.723 49.9427C143.968 40.6479 139.781 31.9046 133.541 24.5075C127.302 17.1103 119.208 11.2939 109.996 7.58678C100.783 3.87966 90.7443 2.39939 80.7911 3.28051C70.8378 4.16162 61.286 7.37618 53.0035 12.632C44.7211 17.8879 37.9707 25.0184 33.3659 33.3755C28.761 41.7327 26.4477 51.0514 26.6362 60.4849L41.7183 60.2748C41.5772 53.2124 43.309 46.236 46.7564 39.9794C50.2038 33.7229 55.2575 28.3847 61.4581 24.4499C67.6587 20.5151 74.8097 18.1086 82.2611 17.4489C89.7126 16.7893 97.2282 17.8975 104.125 20.6728C111.022 23.4481 117.081 27.8026 121.752 33.3404C126.423 38.8782 129.558 45.4239 130.872 52.3824C132.186 59.3409 131.636 66.4918 129.274 73.185C126.912 79.8783 122.812 85.9017 117.346 90.7079L127.656 101.136Z"

/>
</mask>
<path d="M4.55324 89.6902C6.27035 40.5187 43.7242 2.00384 88.1103 3.55383C132.496 5.10383 167.172 46.1375 165.455 95.309C163.738 144.48 126.284 182.995 81.8982 181.445C37.5121 179.895 2.83614 138.862 4.55324 89.6902Z" stroke="#FACC15"/>
<path d="M26.0813 59.1011C27.1923 27.2882 55.1495 2.40342 88.5746 3.57065C122 4.73788 148.153 31.5122 147.042 63.3251C145.931 95.138 117.974 120.023 84.5488 118.855C51.1237 117.688 24.9704 90.9139 26.0813 59.1011Z" stroke="#FACC15"/>
<path d="M25.0049 60.6305C26.1462 27.9485 54.5797 2.38348 88.5513 3.56979C122.523 4.75611 149.104 32.2422 147.963 64.9243C146.821 97.6063 118.388 123.171 84.4162 121.985C50.4446 120.799 23.8636 93.3125 25.0049 60.6305Z" stroke="#FACC15"/>
<path d="M23.9285 62.16C25.1001 28.6089 54.0098 2.36357 88.5282 3.56898C123.046 4.77438 150.055 32.9725 148.883 66.5235C147.712 100.075 118.802 126.32 84.2837 125.114C49.7654 123.909 22.7569 95.711 23.9285 62.16Z" stroke="#FACC15"/>
<path d="M22.8521 63.6894C24.054 29.2695 53.4396 2.34361 88.5049 3.56812C123.57 4.79263 151.006 33.7028 149.804 68.1227C148.602 102.543 119.216 129.468 84.1511 128.244C49.0858 127.019 21.6501 98.1093 22.8521 63.6894Z" stroke="#FACC15"/>
<path d="M21.7757 65.2189C23.008 29.9304 52.8693 2.3237 88.4817 3.56731C124.094 4.81093 151.957 34.4334 150.725 69.7219C149.492 105.01 119.631 132.617 84.0186 131.374C48.4062 130.13 20.5434 100.507 21.7757 65.2189Z" stroke="#FACC15"/>
<path d="M20.6991 66.7484C21.9618 30.5913 52.2986 2.30375 88.4583 3.56647C124.618 4.8292 152.908 35.164 151.645 71.3211C150.383 107.478 120.046 135.766 83.8859 134.503C47.7262 133.24 19.4365 102.905 20.6991 66.7484Z" stroke="#FACC15"/>
<path d="M19.6227 68.2779C20.9157 31.2524 51.7278 2.28382 88.4351 3.56566C125.142 4.84751 153.859 35.8948 152.566 72.9203C151.273 109.946 120.461 138.914 83.7534 137.633C47.0461 136.351 18.3297 105.303 19.6227 68.2779Z" stroke="#FACC15"/>
<path d="M18.5461 69.8074C19.8694 31.9136 51.1568 2.26389 88.4117 3.56487C125.667 4.86584 154.81 36.6258 153.486 74.5196C152.163 112.413 120.876 142.063 83.6207 140.762C46.3657 139.461 17.2229 107.701 18.5461 69.8074Z" stroke="#FACC15"/>
<path d="M17.4696 71.3368C18.8232 32.5749 50.5856 2.24386 88.3884 3.56396C126.191 4.88407 155.76 37.3568 154.407 76.1187C153.053 114.881 121.291 145.212 83.4881 143.892C45.6853 142.571 16.116 110.099 17.4696 71.3368Z" stroke="#FACC15"/>
<path d="M16.3931 72.8662C17.777 33.2363 50.0143 2.22387 88.365 3.56311C126.716 4.90234 156.711 38.088 155.327 77.7179C153.943 117.348 121.706 148.36 83.3554 147.021C45.0046 145.682 15.0092 112.496 16.3931 72.8662Z" stroke="#FACC15"/>
<path d="M15.3166 74.3957C16.7308 33.8979 49.4428 2.2039 88.3417 3.56228C127.241 4.92066 157.662 38.8193 156.248 79.3171C154.834 119.815 122.122 151.509 83.2228 150.15C44.3239 148.792 13.9024 114.893 15.3166 74.3957Z" stroke="#FACC15"/>
<path d="M14.2402 75.9251C15.6847 34.5595 48.8714 2.1839 88.3185 3.56142C127.766 4.93895 158.613 39.5507 157.169 80.9163C155.724 122.282 122.537 154.657 83.0902 153.28C43.6431 151.902 12.7956 117.291 14.2402 75.9251Z" stroke="#FACC15"/>
<path d="M13.1638 77.4546C14.6387 35.2213 48.2999 2.16394 88.2954 3.56061C128.291 4.95729 159.564 40.2822 158.089 82.5155C156.614 124.749 122.953 157.806 82.9578 156.409C42.9623 155.013 11.689 119.688 13.1638 77.4546Z" stroke="#FACC15"/>
<path d="M12.0874 78.984C13.5926 35.8832 47.7282 2.14393 88.2722 3.55976C128.816 4.97558 160.515 41.0138 159.01 84.1147C157.505 127.216 123.369 160.955 82.8252 159.539C42.2813 158.123 10.5823 122.085 12.0874 78.984Z" stroke="#FACC15"/>
<path d="M11.0111 80.5135C12.5465 36.5452 47.1565 2.12396 88.249 3.55894C129.342 4.99393 161.466 41.7456 159.931 85.7139C158.395 129.682 123.785 164.103 82.6928 162.668C41.6002 161.234 9.47573 124.482 11.0111 80.5135Z" stroke="#FACC15"/>
<path d="M9.9347 82.0429C11.5004 37.2072 46.5845 2.10391 88.2258 3.55806C129.867 5.0122 162.417 42.4773 160.851 87.3131C159.286 132.149 124.201 167.252 82.5602 165.798C40.919 164.344 8.369 126.879 9.9347 82.0429Z" stroke="#FACC15"/>
<path d="M8.85827 83.5724C10.4543 37.8694 46.0125 2.08394 88.2025 3.55725C130.393 5.03055 163.368 43.2092 161.772 88.9123C160.176 134.615 124.618 170.401 82.4277 168.927C40.2376 167.454 7.26228 129.275 8.85827 83.5724Z" stroke="#FACC15"/>
<path d="M7.78189 85.1019C9.40816 38.5316 45.4404 2.06392 88.1793 3.5564C130.918 5.04887 164.319 43.9412 162.693 90.5115C161.066 137.082 125.034 173.549 82.2952 172.057C39.5562 170.564 6.15562 131.672 7.78189 85.1019Z" stroke="#FACC15"/>
<path d="M6.7055 86.6313C8.36205 39.1939 44.8682 2.04391 88.1561 3.55555C131.444 5.0672 165.27 44.6732 163.613 92.1107C161.957 139.548 125.451 176.698 82.1627 175.186C38.8748 173.675 5.04895 134.069 6.7055 86.6313Z" stroke="#FACC15"/>
<path d="M5.62901 88.1608C7.31584 39.8563 44.2959 2.02392 88.1328 3.55474C131.97 5.08556 166.221 45.4054 164.534 93.7099C162.847 142.014 125.867 179.847 82.03 178.316C38.1931 176.785 3.94218 136.465 5.62901 88.1608Z" stroke="#FACC15"/>
</svg>
