<svg width="906" height="510" viewBox="0 0 906 510" fill="none" xmlns="http://www.w3.org/2000/svg">
<g clip-path="url(#clip0_60_40901)">
<path d="M-0.000488281 510L906 510L906 -0.000366211L-0.000488281 -0.000366211L-0.000488281 510Z" fill="#4338CA"/>
<path d="M906 788.611C873.283 777.592 772.616 736.981 709.7 722.5C646.783 708.018 583.866 718.722 528.5 701.722C473.133 684.722 432.866 642.537 377.499 620.5C322.133 598.463 259.216 583.981 196.299 569.5C133.383 555.018 32.7162 539.592 -0.000511169 533.611L-0.000511169 -0.000371218L906 -0.000371218L906 788.611Z" fill="url(#paint0_linear_60_40901)"/>
<path d="M906 510.101C872.922 503.247 778.459 526.301 719.937 510.101C661.415 493.901 613.877 528.793 557.899 510.101C501.921 491.409 432.733 510.525 371.666 486.85C310.6 463.174 252.077 422.057 188.466 400.873C124.855 379.689 23.0774 366.602 -10.0004 359.748L-10.0004 -0.000347289L906 -0.000347289L906 510.101Z" fill="url(#paint1_linear_60_40901)"/>
<path d="M906 458.169C883.35 452.027 817.916 441.156 770.1 421.316C722.283 401.477 669.433 356.452 619.1 339.131C568.766 321.81 523.466 334.711 468.1 317.39C412.733 300.069 337.233 252.525 286.899 235.204C236.566 217.883 213.916 228.266 166.099 213.463C118.283 198.66 27.6828 157.568 -0.000511169 146.389V-0.000292324L906 -0.000292324L906 458.169Z" fill="url(#paint2_linear_60_40901)"/>
</g>
<defs>
<linearGradient id="paint0_linear_60_40901" x1="453" y1="788.611" x2="453" y2="-0.000366211" gradientUnits="userSpaceOnUse">
<stop stop-color="#3E3190"/>
<stop offset="1" stop-color="#0D0D0D"/>
</linearGradient>
<linearGradient id="paint1_linear_60_40901" x1="420.738" y1="616.876" x2="420.738" y2="-23.2516" gradientUnits="userSpaceOnUse">
<stop stop-color="#3E3190"/>
<stop offset="1" stop-color="#0D0D0D"/>
</linearGradient>
<linearGradient id="paint2_linear_60_40901" x1="453" y1="458.169" x2="453" y2="-0.000305176" gradientUnits="userSpaceOnUse">
<stop stop-color="#3E3190"/>
<stop offset="1" stop-color="#0D0D0D"/>
</linearGradient>
<clipPath id="clip0_60_40901">
<rect width="906" height="510" fill="white" transform="matrix(-1 0 0 -1 906 510)"/>
</clipPath>
</defs>
</svg>
